<?xml version="1.0" encoding="utf-8"?>
<!-- Generator: Adobe Illustrator 21.0.0, SVG Export Plug-In . SVG Version: 6.00 Build 0)  -->
<svg version="1.1" id="图层_1" xmlns="http://www.w3.org/2000/svg" xmlns:xlink="http://www.w3.org/1999/xlink" x="0px" y="0px"
	 viewBox="0 0 2770 380" style="enable-background:new 0 0 2770 380;" xml:space="preserve">
<style type="text/css">
	.st0{enable-background:new    ;}
	.st1{fill:#5B5B5B;}
	.st2{fill:#0D9EE9;}
</style>
<g>
	<g>
		<g class="st0">
			<path class="st1" d="M427.6,245.3h21.1v-42.7h119.2v42.7H588V256H427.6V245.3z M429.7,154.8H458c0.5-3.4,0.7-15.7,0.6-37h35
				c1.9-5.3,3.6-10.8,5-16.5l13.9,3.4c-1.8,4.3-3.7,8.7-5.7,13.1H564v37h22.2v10.7H564v12c0,12.3-5.3,18.5-15.9,18.7
				c-5.7,0.1-12.7,0-20.9-0.3c-0.5-3.9-1.4-8.1-2.4-12.5c6.8,0.8,13.1,1.1,18.8,1.1c5.4,0,8.1-3.1,8.1-9.2v-9.7H469
				c-2.9,15.7-12.5,29.5-28.9,41.4c-3-4-6-7.6-8.9-10.7c13.2-8.4,21.5-18.7,24.9-30.7h-26.4V154.8z M460.7,245.3h23.8V213h-23.8
				V245.3z M551.7,128.2h-80.8c0.1,10.7-0.1,19.6-0.5,26.6h81.3V128.2z M487.2,176.4l6.7-8.3c10.3,5.8,19,11.5,26.1,16.9l-7.3,9.6
				C505.8,188.9,497.3,182.9,487.2,176.4z M493.5,137.1l6.6-8.3c8.6,4.9,16.7,9.8,24.2,14.9l-7.6,9.7
				C509.2,147.7,501.5,142.2,493.5,137.1z M496.2,245.3h23.8V213h-23.8V245.3z M555.9,213h-24.2v32.3h24.2V213z"/>
			<path class="st1" d="M645.8,225c0,4.8,0.3,9.2,0.8,13.5c-6.2,2.9-13.6,7.1-22.2,12.5c-1.9,1.1-4.2,2.9-6.8,5.5l-8.6-11.2
				c3.5-3.4,5.2-7.4,5.2-12.2v-33.1h-16.4v-11.2h16.4v-21.6h-8.6v-9.6c-1.4,2.8-2.9,5.5-4.4,8.1c-2.5-3.7-5.1-7.1-7.9-10.4
				c9-16.1,15.7-33.6,20.1-52.4l12.5,2.9c-1.9,7.2-4.2,14.3-6.8,21.2h31.1v11.2h-35.7c-2.5,5.9-5.2,11.8-8.1,17.7h39.3v11.2H626
				v21.6h22.5v11.2H626v36.3C632.3,232.8,638.9,229,645.8,225z M656.8,119.1h27.2c1.8-5,3.8-10.7,5.8-17.2l13.5,3.2
				c-2.2,4.9-4.2,9.5-6.2,13.9H742v65h-11.7v-4.9h-25v15.6h42.8v35.7c0,11.8-6.5,17.7-19.6,17.7c-5.1,0-10.3-0.1-15.6-0.2
				c-0.4-4.8-1.2-8.8-2.4-12.2c6.1,0.5,11.7,0.8,16.9,0.8c6.1,0,9.1-2.8,9.1-8.4v-22.7h-31.1v55.6H693v-55.6h-28.5v42.8h-11.7v-53.5
				H693v-15.6h-24.5v4.9h-11.7V119.1z M730.3,129.7h-61.8v14.4h61.8V129.7z M668.5,168.8h61.8v-14.4h-61.8V168.8z"/>
			<path class="st1" d="M788.2,245.3h-12.7v-83.9h57.9v-22.4h-71.7v-12.3h75.7c-3.4-6.8-7.3-13.6-11.8-20.4l12.5-5.8
				c4.6,6.8,8.9,13.8,12.8,20.9l-10.7,5.4h78.5v12.3h-72.3v22.4h58.9v60.7c0,13.6-6.4,20.4-19.3,20.4c-5.9,0-13.7-0.1-23.2-0.3
				c-0.5-3.6-1.3-7.9-2.3-13c9,0.5,16.2,0.8,21.6,0.8c7,0,10.5-3.6,10.5-10.7v-45.9h-46.2v88.7h-13v-88.7h-45.3V245.3z"/>
			<path class="st1" d="M1087,222.3c-3.6,4.4-6.5,8.3-8.8,11.7c-9.9-4.7-19.1-10.3-27.4-16.9v8.9H1012v16.9h63.4v10.5h-139v-10.5
				h63.4V226h-39.3v-8.8c-8.6,7.2-17.6,13.4-26.9,18.7c-2.1-2.9-4.9-6.3-8.4-10.2c16.7-8.1,31.1-18.4,43.2-30.8H927v-10.5h32.3V130
				h-27.2v-10.5h27.2v-17.5h12.2v17.5h69.6v-17.5h12.2v17.5h27.2V130h-27.2v54.3h31.8v10.5h-42.7
				C1054.5,207,1069.4,216.1,1087,222.3z M999.9,200.1h12.2v15.7h37.1c-7.7-6.2-14.8-13.2-21.2-20.9h-44.7
				c-6.8,7.7-13.8,14.7-21.1,20.9h37.6V200.1z M971.5,141.4h69.6V130h-69.6V141.4z M971.5,162.8h69.6v-11.4h-69.6V162.8z
				 M971.5,184.3h69.6v-11.5h-69.6V184.3z"/>
			<path class="st1" d="M1089.5,194.1c12.2-20.3,21-42.6,26.4-67h-21.1v-10.7h57.6v10.7h-25.7c-2.8,12.5-6.2,24.4-10.2,35.7h29.6
				v82.7h-10.7v-10.9h-17.8V250h-10.7v-64.3c-2.9,5.9-5.9,11.7-9.2,17.1C1095.4,199.9,1092.7,197,1089.5,194.1z M1135.5,173.1h-17.8
				v51.1h17.8V173.1z M1231.8,182.7v-7.6h-23.5v65.2h26.4v-46.7h12v65.7h-12V252h-76.6v-58.4h12v46.7h26.1v-65.2h-35.2v-54.7h12v43
				h23.2v-59.8h12v59.8h23.5v-42.8h12v62.1H1231.8z"/>
			<path class="st1" d="M1257.3,180.6c15.9-23.6,27.8-49.6,35.8-78.2l12.7,3.6c-4.7,14.5-9.8,28-15.4,40.2v116.3h-12V170
				c-5,8.7-10.2,16.7-15.7,23.9C1260.9,189.4,1259.1,184.9,1257.3,180.6z M1304.1,124.3h53c-3.2-5.6-6.6-11.1-10.1-16.5l10.9-5.7
				c3.9,5.8,7.7,12,11.5,18.5l-7.1,3.7h56v11.4h-114.2V124.3z M1313.1,150.8h95.7v11h-95.7V150.8z M1313.1,176.9h95.7v11h-95.7
				V176.9z M1314.8,203.2h92.3v59.4h-12.5v-9.7h-67.3v9.7h-12.5V203.2z M1394.6,214.2h-67.3v27.6h67.3V214.2z"/>
			<path class="st1" d="M1437.8,211.3l11.8,4.1c-4.8,13-9.7,24.8-14.9,35.5c-3.5-1.5-7.5-3.1-12-4.7
				C1428,236.7,1433,225.1,1437.8,211.3z M1444.9,118.2h39.7c2.3-5.8,4.2-11.4,5.8-16.7l12.7,3.4c-1.8,4.6-3.6,9-5.6,13.3h64.6v88.6
				h-12.5v-5h-92.1v5h-12.5V118.2z M1549.5,129.2h-92.1v13.5h92.1V129.2z M1457.4,166.7h92.1V153h-92.1V166.7z M1457.4,190.7h92.1
				V177h-92.1V190.7z M1461.9,212.9h12.3v23.8c0,6.7,3.6,10.1,10.7,10.1h36c8.6,0,13.7-3,15.1-8.9c1.1-3.9,2.2-9.8,3.2-17.7
				c4,1.6,8.2,3.2,12.7,4.7c-1.3,7.5-2.6,13.5-3.9,18c-2.5,10.3-10.5,15.4-24.2,15.4H1483c-14.1,0-21.1-6.7-21.1-20.1V212.9z
				 M1490.3,211.1l8.8-7.5c6.6,6.1,13.8,13.3,21.7,21.7l-9.9,8.4C1502.9,224.4,1496.1,216.8,1490.3,211.1z M1554.1,216.5l9.4-7.3
				c7.7,8.3,15.5,17.5,23.5,27.4l-10.4,7.9C1569.3,234.6,1561.7,225.2,1554.1,216.5z"/>
			<path class="st1" d="M1638.9,148.7c-4.1-5.4-8.6-10.9-13.5-16.5l7.3-5.2h-13.9c-6.2,7.9-13.1,14.9-20.8,20.9
				c-2.2-2.6-4.9-5.6-8.1-9.1c12.7-9.8,23-22.2,31-37.1h13.9c-2.7,5.4-5.6,10.4-8.8,15.2h47.6v10.1h-38.9c4.9,4.7,9.5,9.5,13.8,14.4
				L1638.9,148.7z M1596.6,149.5h69.3c-1.9-3.4-4.2-7.2-6.9-11.4l11.2-4.9c3.6,5.2,6.8,10.6,9.7,16.2h64.1v25.1h-12.5V160h-122.5
				v14.8h-12.5V149.5z M1614.9,172h99.9v39.1h-12.3V207h-75.1v12.3h101v42.3h-12.3v-6.2h-88.7v6.3h-12.5V172z M1702.5,181.7h-75.1
				v15.6h75.1V181.7z M1716.1,229.1h-88.7V245h88.7V229.1z M1713,148.5c-3.6-5.1-7.9-10.6-13.1-16.5l7.1-5h-13.7
				c-3.1,5-6.4,9.7-9.9,13.9c-2.4-2.4-5.7-5-9.9-7.9c7.6-8.4,13.9-18.9,19-31.3h13.9c-2.3,5.4-4.8,10.4-7.4,15.2h51.8v10.1h-41.5
				c4.9,4.8,9.4,9.5,13.3,14.3L1713,148.5z"/>
			<path class="st1" d="M1754.5,235.1c8.3-2,16.4-4,24.2-6V180h-20.3v-11.4h20.3v-40.5h-21.9v-11.4h55.8v11.4h-21.9v40.5h20.6V180
				h-20.6v45.9c7.1-2,14.1-4,20.8-6c0.5,4.9,1.1,9.1,1.8,12.7c-18.5,5-36.6,10.2-54.3,15.7L1754.5,235.1z M1806.1,244.7h50.8v-23.4
				h-41.4V210h41.4v-21.4h-26v6h-12v-83.7h87.9v83.7h-12v-6h-26V210h41.4v11.4h-41.4v23.4h48.5V256h-111.3V244.7z M1830.9,144.3h26
				v-22.4h-26V144.3z M1830.9,177.5h26V155h-26V177.5z M1894.8,121.9h-26v22.4h26V121.9z M1868.9,177.5h26V155h-26V177.5z"/>
			<path class="st1" d="M1922.3,203.8h120.2v12.3h-120.2V203.8z M1949.7,178.5v-12.3l6.5-64.1h13.5l-2.5,25.8h115.1v12.3H1966
				l-2.5,26h106.9c-1.3,22.7-2.8,43.8-4.4,63.4c-1.5,11.5-4.8,19.2-9.9,23.2c-4.9,3.9-13,5.8-24.4,5.8c-10.7-0.1-23-0.3-36.9-0.6
				c-0.6-3.7-1.6-8.4-2.8-14.1c16.4,1.2,28.7,1.8,36.8,1.9c14.5,1,22.4-4.7,23.7-17c1.4-14.4,2.6-31.1,3.6-50.3H1949.7z"/>
			<path class="st1" d="M2162.6,107.1l11.8-6.3c4.6,5.9,9.1,12.4,13.3,19.3l-7.9,4.5h65.8V137h-126.3v39.7
				c0,38.3-7.9,66.9-23.7,85.8c-2.6-3.6-5.7-7.3-9.4-11.2c13-14.5,19.5-39.3,19.5-74.3v-52.4h68.6
				C2170.8,118.7,2166.9,112.9,2162.6,107.1z M2118.3,240.6h75c8.4-21.6,17.4-51.1,26.8-88.6l14.1,3.9
				c-10.1,35.7-19.1,63.9-26.9,84.7h40.1v12.3h-129.1V240.6z M2127.1,161l12.3-4.2c6.7,19.7,13.2,41.7,19.5,66.2l-13.8,4.2
				C2140.1,205.7,2134.1,183.7,2127.1,161z M2166.2,152.9l12.5-3.6c5.6,19.5,10.6,41.3,14.9,65.4l-14.3,3.7
				C2176.2,197,2171.8,175.1,2166.2,152.9z"/>
			<path class="st1" d="M2331.8,259.4v-51.6h-47.2c-1.8,22.5-8.4,41.1-19.6,56c-2.8-3.6-6-7.3-9.6-11.2c7-9.9,11.8-21,14.3-33.1
				c2.4-11.7,3.6-28.2,3.6-49.6V112h132.2v128.9c0,12.9-6.1,19.3-18.3,19.3c-7.5,0-15.8-0.2-25.1-0.5c-0.5-3.6-1.4-8.1-2.4-13.5
				c9.4,0.6,17,1,22.9,1c6.7,0,10.1-3.2,10.1-9.6v-29.8h-47.7v51.6H2331.8z M2285.5,196.2h46.3v-30.3h-45.6
				C2286.5,176.3,2286.3,186.4,2285.5,196.2z M2286.2,124v30.2h45.6V124H2286.2z M2392.5,124h-47.7v30.2h47.7V124z M2344.8,196.2
				h47.7v-30.3h-47.7V196.2z"/>
			<path class="st1" d="M2461.4,213.7l10.5,8.3c-13.8,12.4-28.4,24.4-43.6,36c-2.6-3.1-5.6-6.4-8.9-9.9
				C2433.4,238.5,2447.4,227,2461.4,213.7z M2534.4,169.1c13.8,11.1,28,23.4,42.5,36.7c-3.6,3.5-6.9,6.8-9.9,9.9
				c-4.5-4.4-9-8.8-13.6-13.1c-14.4,0.6-29.2,1.3-44.3,2.1v36.5c0,12.3-6.5,18.5-19.5,18.5c-5.3,0-12.3-0.1-20.9-0.3
				c-0.5-4-1.2-8.4-2.1-13.3c9.1,1,16.1,1.5,20.9,1.5c5.9,0,8.9-2.9,8.9-8.8v-33.4c-13.1,0.7-26.5,1.5-40.1,2.3
				c-6.2,0.3-12.3,1-18.3,2.1l-5.4-13.9c7.1-1.3,13.9-3.4,20.3-6.3c16.5-8.1,31.9-16.3,46.1-24.5c-18.8,1.5-34.6,2.8-47.4,3.9
				c-5.6,0.5-9.9,1.1-12.8,1.8l-5.2-13.6c5.2-1.3,10.1-3.2,14.6-5.7c13.6-7.6,27.2-16.5,40.8-26.8c-18.5,1.1-37.3,2.1-56.4,3
				c-0.8-3.8-1.7-7.6-2.9-11.4c51.6-1.9,97.4-4.9,137.4-8.9l2.4,11.5c-23.5,1.9-47.3,3.7-71.4,5.3l6.6,4.6
				c-17,11.4-32.7,20.9-47,28.7c24.2-1.4,44.3-2.6,60.2-3.9c10.8-6.9,20.8-13.9,30-20.9l10.5,8.6c-27.1,19.4-58.7,37.5-94.6,54.3
				c21.5-0.8,47.6-1.9,78.3-3.4c-5.4-5-10.8-9.8-16.3-14.6L2534.4,169.1z M2524.8,222.3l8.3-8.8c13.6,9.1,28.6,19.9,44.9,32.6
				l-9.6,10.5C2553.3,244.1,2538.8,232.7,2524.8,222.3z"/>
			<path class="st1" d="M2585.9,234.6c17.9-3.5,36.5-7.4,55.6-11.7c-0.4,5.6-0.6,9.5-0.6,11.7c-19.6,4.3-36.7,8.4-51.3,12.3
				L2585.9,234.6z M2607,200.6c8.6-1.2,19.7-2.8,33.2-4.9c-0.6,4.3-1.2,8.3-1.6,12c-13.5,1.8-29,4.2-46.4,7l-2.6-11.7
				c6.8-6.9,14.8-18.2,24.1-33.8c-11.2,0.8-19.3,1.3-24.2,1.7l-3.1-11c9.5-12.5,19.8-31.7,30.8-57.4l12.3,4.9
				c-10.5,20.5-20.1,37.7-28.7,51.6c7.1-0.1,13.5-0.3,19.1-0.5c3.2-5.8,6.7-12.1,10.2-18.8l12.2,5.4
				C2630.1,166.4,2618.3,185,2607,200.6z M2716.2,145.9c9.1,12.2,18.4,26,27.9,41.4c-3.8,2.2-7.8,4.6-12,7.3
				c-2.7-4.6-5.3-9-7.8-13.2c-5,0.3-10.2,0.6-15.6,0.9v55c0,6.6,2.4,9.9,7.3,9.9h7.9c5.3,0,8.3-2.7,9.1-8.1
				c0.9-6.5,1.4-13.5,1.6-21.1c3.6,1.5,7.9,3.1,13,4.7c-0.9,9.4-1.8,16.7-2.8,21.9c-1.5,9.4-7.2,14.1-17,14.1h-13.9
				c-11.8,0-17.7-6.8-17.7-20.3V183c-6.1,0.3-12.3,0.7-18.8,1.1c-0.9,23.5-3.9,39.9-9.1,49.2c-6.2,11.9-17.7,21.7-34.5,29.5
				c-2.4-3.4-5.1-7-8.3-10.9c15.7-6.4,26.2-14.8,31.5-25.1c4.9-8.3,7.5-22.2,7.9-41.9c-2.2,0.2-4.5,0.3-6.7,0.4
				c-4.7,0.4-9,1.1-13,2.1l-5.5-12.7c4.6-1.9,8.4-4.5,11.2-7.8c8.1-9.7,15.7-20.2,22.9-31.6h-35.4v-11.5h51.7
				c-4.1-6.2-7.9-11.7-11.5-16.5l10.7-6.6c4.1,5.1,8.7,11.1,13.8,18.2l-7.7,5h49.4v11.5h-65.9l8.9,3.9c-9,12.1-17.8,23.2-26.4,33.4
				c20.4-0.7,39.1-1.4,56.2-2.2c-4.1-6.6-8-12.6-11.8-18.1L2716.2,145.9z"/>
		</g>
	</g>
	<g>
		<g>
			<g>
				
					<rect x="207.3" y="154.9" transform="matrix(0.7071 -0.7071 0.7071 0.7071 -57.834 213.7224)" class="st2" width="43.5" height="43.5"/>
			</g>
			<g>
				
					<rect x="276.9" y="154.9" transform="matrix(0.7071 -0.7071 0.7071 0.7071 -37.4698 262.9366)" class="st2" width="43.5" height="43.5"/>
			</g>
			<g>
				
					<rect x="305.7" y="118.2" transform="matrix(0.7071 -0.7071 0.7071 0.7071 -1.0468 267.6028)" class="st2" width="33.7" height="33.7"/>
			</g>
			<g>
				
					<rect x="249.7" y="122.4" transform="matrix(0.7071 -0.7071 0.7071 0.7071 -20.3597 229.2807)" class="st2" width="33.7" height="33.7"/>
			</g>
			<g>
				
					<rect x="172.6" y="139.9" transform="matrix(0.7071 -0.7071 0.7071 0.7071 -53.1834 174.6353)" class="st2" width="23.2" height="23.2"/>
			</g>
			<g>
				
					<rect x="197.4" y="119.2" transform="matrix(0.7071 -0.7071 0.7071 0.7071 -31.2765 186.1143)" class="st2" width="23.2" height="23.2"/>
			</g>
			<g>
				
					<rect x="277.1" y="90.1" transform="matrix(0.7071 -0.7071 0.7071 0.7071 12.6288 233.9649)" class="st2" width="23.2" height="23.2"/>
			</g>
			<g>
				
					<rect x="205" y="77.7" transform="matrix(0.7071 -0.7071 0.7071 0.7071 1.1511 177.3238)" class="st2" width="19.2" height="19.2"/>
			</g>
			<g>
				
					<rect x="248.1" y="68.5" transform="matrix(0.7071 -0.7071 0.7071 0.7071 20.2288 205.1083)" class="st2" width="19.2" height="19.2"/>
			</g>
			<g>
				
					<rect x="304.6" y="68.5" transform="matrix(0.7071 -0.7071 0.7071 0.7071 36.7855 245.0595)" class="st2" width="19.2" height="19.2"/>
			</g>
			<g>
				
					<rect x="226.6" y="101" transform="matrix(0.7071 -0.7071 0.7071 0.7071 -10.1764 202.1627)" class="st2" width="24.7" height="24.7"/>
			</g>
			<g>
				
					<rect x="174" y="98.3" transform="matrix(0.7071 -0.7071 0.7071 0.7071 -22.5091 161.398)" class="st2" width="19.2" height="19.2"/>
			</g>
		</g>
		<g>
			<polygon class="st2" points="279.8,219.9 279.8,257.5 162.8,325.1 45.7,257.5 45.7,122.5 162.8,54.9 194.2,73 224.2,42.6 
				162.8,7.2 4.5,98.6 4.5,281.4 162.8,372.8 321,281.4 321,219.9 			"/>
		</g>
	</g>
</g>
</svg>
