<?xml version="1.0" encoding="utf-8"?>
<!-- Generator: Adobe Illustrator 21.0.0, SVG Export Plug-In . SVG Version: 6.00 Build 0)  -->
<svg version="1.1" id="图层_1" xmlns="http://www.w3.org/2000/svg" xmlns:xlink="http://www.w3.org/1999/xlink" x="0px" y="0px"
	 viewBox="0 0 1920 380" style="enable-background:new 0 0 1920 380;" xml:space="preserve">
<style type="text/css">
	.st0{fill:#5B5B5B;}
	.st1{fill:#0D9EE9;}
</style>
<g>
	<g>
		<path class="st0" d="M591.5,222.4c-3.6,4.4-6.5,8.4-8.8,11.7c-10-4.7-19.2-10.4-27.5-16.9v9h-38.9v16.9h63.7v10.6H440.4v-10.6H504
			v-16.9h-39.4v-8.9c-8.6,7.2-17.6,13.5-27,18.8c-2.1-2.9-4.9-6.3-8.5-10.3c16.7-8.1,31.2-18.5,43.4-30.9h-41.6v-10.6h32.4v-54.5
			H436v-10.6h27.4v-17.6h12.2v17.6h69.8v-17.6h12.2v17.6h27.4v10.6h-27.4v54.5h31.9v10.6h-42.8C558.9,207.1,573.8,216.2,591.5,222.4
			z M504,200.1h12.2v15.8h37.3c-7.8-6.2-14.8-13.2-21.2-21h-44.9c-6.8,7.7-13.8,14.7-21.2,21H504V200.1z M475.5,141.2h69.8v-11.4
			h-69.8V141.2z M475.5,162.7h69.8v-11.4h-69.8V162.7z M475.5,184.3h69.8v-11.6h-69.8V184.3z"/>
		<path class="st0" d="M594.1,194.1c12.3-20.4,21.1-42.8,26.5-67.2h-21.2v-10.7h57.8v10.7h-25.8c-2.8,12.6-6.2,24.5-10.3,35.8h29.7
			v83h-10.7v-10.9h-17.9v15.5h-10.7v-64.6c-2.9,6-6,11.7-9.3,17.2C599.9,200,597.2,197,594.1,194.1z M640.1,173.1h-17.9v51.3h17.9
			V173.1z M736.8,182.7V175h-23.6v65.5h26.5v-46.9h12v65.9h-12v-7.3h-76.8v-58.6h12v46.9h26.2V175h-35.3v-54.9h12v43.1h23.3v-60.1
			h12v60.1h23.6v-43h12v62.4H736.8z"/>
		<path class="st0" d="M762.4,180.6c16-23.7,27.9-49.8,36-78.5l12.7,3.6c-4.7,14.6-9.9,28.1-15.5,40.4v116.7h-12v-92.9
			c-5,8.7-10.3,16.7-15.8,24C766,189.4,764.3,184.9,762.4,180.6z M809.5,124.1h53.2c-3.3-5.6-6.6-11.1-10.2-16.6l10.9-5.7
			c3.9,5.9,7.8,12,11.6,18.6l-7.1,3.7h56.3v11.4H809.5V124.1z M818.4,150.6h96.1v11.1h-96.1V150.6z M818.4,176.8h96.1v11.1h-96.1
			V176.8z M820.2,203.2h92.6v59.6h-12.5V253h-67.6v9.8h-12.5V203.2z M900.3,214.3h-67.6V242h67.6V214.3z"/>
		<path class="st0" d="M943.6,211.4l11.9,4.1c-4.8,13-9.8,24.9-15,35.7c-3.5-1.5-7.5-3.1-12-4.7
			C933.8,236.9,938.8,225.2,943.6,211.4z M950.8,117.9h39.8c2.3-5.8,4.3-11.4,5.8-16.8l12.7,3.4c-1.8,4.6-3.7,9.1-5.6,13.4h64.9
			v88.9h-12.5v-5h-92.5v5h-12.5V117.9z M1055.8,129h-92.5v13.5h92.5V129z M963.3,166.6h92.5v-13.7h-92.5V166.6z M963.3,190.7h92.5
			V177h-92.5V190.7z M967.9,213h12.4v23.9c0,6.7,3.6,10.1,10.7,10.1h36.1c8.7,0,13.7-3,15.1-9c1.1-3.9,2.2-9.8,3.3-17.7
			c4,1.6,8.2,3.2,12.7,4.7c-1.3,7.5-2.6,13.5-3.9,18.1c-2.5,10.3-10.6,15.5-24.3,15.5h-41c-14.1,0-21.2-6.7-21.2-20.2V213z
			 M996.4,211.2l8.8-7.5c6.6,6.1,13.9,13.4,21.8,21.8l-9.9,8.5C1009,224.5,1002.1,216.9,996.4,211.2z M1060.4,216.6l9.4-7.3
			c7.7,8.4,15.6,17.5,23.6,27.5l-10.4,8C1075.6,234.7,1068.1,225.4,1060.4,216.6z"/>
		<path class="st0" d="M1145.5,148.5c-4.1-5.4-8.6-11-13.5-16.6l7.3-5.2h-14c-6.2,7.9-13.2,14.9-20.8,21c-2.2-2.6-4.9-5.6-8.1-9.1
			c12.7-9.9,23.1-22.3,31.1-37.3h14c-2.7,5.4-5.7,10.5-8.9,15.3h47.8v10.1h-39.1c4.9,4.7,9.5,9.6,13.8,14.5L1145.5,148.5z
			 M1103,149.3h69.6c-1.9-3.4-4.2-7.2-6.9-11.4l11.2-4.9c3.6,5.2,6.8,10.6,9.8,16.3h64.3v25.2h-12.5v-14.7h-122.9v14.8H1103V149.3z
			 M1121.4,172h100.3v39.2h-12.4v-4.1H1134v12.4h101.4V262H1223v-6.2H1134v6.3h-12.5V172z M1209.3,181.7H1134v15.6h75.4V181.7z
			 M1223,229.3H1134v16h89.1V229.3z M1219.9,148.3c-3.6-5.1-8-10.6-13.2-16.6l7.1-5h-13.8c-3.1,5-6.5,9.7-9.9,14
			c-2.4-2.4-5.7-5-9.9-8c7.6-8.5,13.9-18.9,19-31.4h14c-2.3,5.4-4.8,10.5-7.4,15.3h52v10.1h-41.7c4.9,4.8,9.4,9.6,13.4,14.3
			L1219.9,148.3z"/>
		<path class="st0" d="M1261.6,235.3c8.4-2,16.4-4,24.3-6v-49.3h-20.4v-11.4h20.4v-40.7h-22v-11.4h56v11.4h-22v40.7h20.7v11.4h-20.7
			V226c7.2-2,14.1-4,20.8-6c0.5,4.9,1.1,9.1,1.8,12.7c-18.6,5-36.7,10.3-54.5,15.8L1261.6,235.3z M1313.4,244.9h51v-23.4h-41.5
			v-11.4h41.5v-21.5h-26v6h-12v-84h88.2v84h-12v-6h-26.1v21.5h41.5v11.4h-41.5v23.4h48.7v11.4h-111.7V244.9z M1338.3,144.1h26v-22.5
			h-26V144.1z M1338.3,177.5h26v-22.6h-26V177.5z M1402.4,121.6h-26.1v22.5h26.1V121.6z M1376.4,177.5h26.1v-22.6h-26.1V177.5z"/>
		<path class="st0" d="M1430,203.9h120.6v12.4H1430V203.9z M1457.5,178.5v-12.4l6.5-64.3h13.5l-2.5,25.9h115.5V140h-116.7l-2.5,26.1
			h107.3c-1.3,22.8-2.8,44-4.4,63.7c-1.5,11.5-4.8,19.3-9.9,23.3c-4.9,3.9-13.1,5.9-24.5,5.9c-10.7-0.1-23-0.3-37-0.7
			c-0.7-3.7-1.6-8.4-2.8-14.2c16.5,1.2,28.8,1.8,37,2c14.5,1,22.5-4.7,23.8-17.1c1.4-14.4,2.6-31.3,3.6-50.5H1457.5z"/>
		<path class="st0" d="M1671.2,106.8l11.9-6.3c4.7,6,9.1,12.4,13.4,19.4l-7.9,4.6h66v12.4h-126.8v39.9c0,38.4-7.9,67.1-23.8,86.1
			c-2.6-3.6-5.8-7.3-9.4-11.2c13-14.5,19.5-39.4,19.5-74.6v-52.6h68.9C1679.4,118.4,1675.5,112.6,1671.2,106.8z M1626.8,240.8h75.3
			c8.5-21.7,17.4-51.3,26.9-88.9l14.2,3.9c-10.1,35.8-19.2,64.1-27,85h40.2v12.4h-129.6V240.8z M1635.6,160.9l12.4-4.2
			c6.7,19.8,13.2,41.9,19.5,66.4l-13.8,4.2C1648.7,205.8,1642.6,183.7,1635.6,160.9z M1674.8,152.7l12.5-3.6
			c5.6,19.5,10.6,41.4,15,65.6l-14.3,3.7C1684.9,197,1680.5,175.1,1674.8,152.7z"/>
		<path class="st0" d="M1841.1,259.7v-51.8h-47.4c-1.8,22.6-8.4,41.3-19.7,56.2c-2.8-3.6-6-7.3-9.6-11.2c7.1-10,11.8-21.1,14.3-33.2
			c2.4-11.7,3.6-28.3,3.6-49.8v-58.1H1915v129.4c0,12.9-6.1,19.4-18.4,19.4c-7.5,0-15.9-0.2-25.2-0.5c-0.5-3.6-1.4-8.1-2.4-13.5
			c9.4,0.7,17.1,1,23,1c6.7,0,10.1-3.2,10.1-9.6v-30h-47.9v51.8H1841.1z M1794.6,196.2h46.5v-30.4h-45.8
			C1795.6,176.3,1795.4,186.4,1794.6,196.2z M1795.3,123.8V154h45.8v-30.3H1795.3z M1902,123.8h-47.9V154h47.9V123.8z M1854.1,196.2
			h47.9v-30.4h-47.9V196.2z"/>
	</g>
	<g>
		<g>
			<g>
				
					<rect x="208.6" y="154.8" transform="matrix(0.7071 0.7071 -0.7071 0.7071 192.4337 -111.2267)" class="st1" width="43.7" height="43.7"/>
			</g>
			<g>
				
					<rect x="278.5" y="154.8" transform="matrix(0.7071 0.7071 -0.7071 0.7071 212.8864 -160.6039)" class="st1" width="43.7" height="43.7"/>
			</g>
			<g>
				
					<rect x="307.3" y="118" transform="matrix(0.7071 0.7071 -0.7071 0.7071 190.4004 -189.7623)" class="st1" width="33.9" height="33.9"/>
			</g>
			<g>
				
					<rect x="251.1" y="122.1" transform="matrix(0.7071 0.7071 -0.7071 0.7071 176.8594 -148.8265)" class="st1" width="33.9" height="33.9"/>
			</g>
			<g>
				
					<rect x="173.8" y="139.8" transform="matrix(0.7071 0.7071 -0.7071 0.7071 161.3881 -86.7937)" class="st1" width="23.3" height="23.3"/>
			</g>
			<g>
				
					<rect x="198.7" y="119" transform="matrix(0.7071 0.7071 -0.7071 0.7071 153.9966 -110.4878)" class="st1" width="23.3" height="23.3"/>
			</g>
			<g>
				
					<rect x="278.7" y="89.8" transform="matrix(0.7071 0.7071 -0.7071 0.7071 156.7881 -175.5885)" class="st1" width="23.3" height="23.3"/>
			</g>
			<g>
				
					<rect x="206.3" y="77.3" transform="matrix(0.7071 0.7071 -0.7071 0.7071 124.6982 -127.2206)" class="st1" width="19.3" height="19.3"/>
			</g>
			<g>
				
					<rect x="249.6" y="68.1" transform="matrix(0.7071 0.7071 -0.7071 0.7071 130.8889 -160.5256)" class="st1" width="19.3" height="19.3"/>
			</g>
			<g>
				
					<rect x="306.3" y="68.1" transform="matrix(0.7071 0.7071 -0.7071 0.7071 147.5049 -200.6401)" class="st1" width="19.3" height="19.3"/>
			</g>
			<g>
				
					<rect x="228" y="100.7" transform="matrix(0.7071 0.7071 -0.7071 0.7071 150.3885 -136.8731)" class="st1" width="24.8" height="24.8"/>
			</g>
			<g>
				
					<rect x="175.1" y="97.9" transform="matrix(0.7071 0.7071 -0.7071 0.7071 130.1511 -99.1621)" class="st1" width="19.3" height="19.3"/>
			</g>
		</g>
		<g>
			<polygon class="st1" points="281.4,220 281.4,257.8 163.9,325.7 46.4,257.8 46.4,122.2 163.9,54.3 195.4,72.5 225.5,42.1 
				163.9,6.5 5,98.3 5,281.7 163.9,373.5 322.8,281.7 322.8,220 			"/>
		</g>
	</g>
</g>
</svg>
