<?xml version="1.0" encoding="utf-8"?>
<!-- Generator: Adobe Illustrator 21.0.0, SVG Export Plug-In . SVG Version: 6.00 Build 0)  -->
<svg version="1.1" id="图层_1" xmlns="http://www.w3.org/2000/svg" xmlns:xlink="http://www.w3.org/1999/xlink" x="0px" y="0px"
	 viewBox="0 0 2770 380" style="enable-background:new 0 0 2770 380;" xml:space="preserve">
<style type="text/css">
	.st0{fill:#0D9EE9;}
	.st1{enable-background:new    ;}
	.st2{fill:#5B5B5B;}
</style>
<g>
	<g>
		<g>
			
				<rect x="207.3" y="154.9" transform="matrix(0.7071 -0.7071 0.7071 0.7071 -57.8271 213.6865)" class="st0" width="43.5" height="43.5"/>
		</g>
		<g>
			
				<rect x="276.9" y="154.9" transform="matrix(0.7071 -0.7071 0.7071 0.7071 -37.4333 262.8919)" class="st0" width="43.5" height="43.5"/>
		</g>
		<g>
			
				<rect x="305.7" y="118.2" transform="matrix(0.7071 -0.7071 0.7071 0.7071 -1.0005 267.631)" class="st0" width="33.7" height="33.7"/>
		</g>
		<g>
			
				<rect x="249.7" y="122.4" transform="matrix(0.7071 -0.7071 0.7071 0.7071 -20.4154 229.2691)" class="st0" width="33.7" height="33.7"/>
		</g>
		<g>
			
				<rect x="172.6" y="139.9" transform="matrix(0.7071 -0.7071 0.7071 0.7071 -53.1779 174.6113)" class="st0" width="23.2" height="23.2"/>
		</g>
		<g>
			
				<rect x="197.4" y="119.2" transform="matrix(0.7071 -0.7071 0.7071 0.7071 -31.2822 186.0847)" class="st0" width="23.2" height="23.2"/>
		</g>
		<g>
			
				<rect x="277.1" y="90.1" transform="matrix(0.7071 -0.7071 0.7071 0.7071 12.6365 233.9041)" class="st0" width="23.2" height="23.2"/>
		</g>
		<g>
			
				<rect x="205" y="77.7" transform="matrix(0.7071 -0.7071 0.7071 0.7071 1.1089 177.3195)" class="st0" width="19.2" height="19.2"/>
		</g>
		<g>
			
				<rect x="248.1" y="68.5" transform="matrix(0.7071 -0.7071 0.7071 0.7071 20.2578 205.0785)" class="st0" width="19.2" height="19.2"/>
		</g>
		<g>
			
				<rect x="304.6" y="68.5" transform="matrix(0.7071 -0.7071 0.7071 0.7071 36.8026 245.0331)" class="st0" width="19.2" height="19.2"/>
		</g>
		<g>
			
				<rect x="226.6" y="101" transform="matrix(0.7071 -0.7071 0.7071 0.7071 -10.1592 202.1545)" class="st0" width="24.7" height="24.7"/>
		</g>
		<g>
			
				<rect x="174" y="98.3" transform="matrix(0.7071 -0.7071 0.7071 0.7071 -22.5147 161.4433)" class="st0" width="19.2" height="19.2"/>
		</g>
	</g>
	<g>
		<polygon class="st0" points="279.8,219.9 279.8,257.5 162.8,325.1 45.7,257.5 45.7,122.5 162.8,54.9 194.2,73 224.2,42.6 
			162.8,7.2 4.5,98.6 4.5,281.4 162.8,372.8 321,281.4 321,219.9 		"/>
	</g>
</g>
<g>
	<g class="st1">
		<path class="st2" d="M426.7,192c7.7-2.1,15.5-4.3,23.4-6.7v-38.6h-21.6v-11.2h21.6v-31.5h12.5v31.5h19v11.2h-19v34.6
			c5.7-1.8,11.6-3.8,17.5-5.8c0,5.2,0.1,9.4,0.3,12.7c-5.6,1.7-11.6,3.6-17.8,5.7v48.5c0,11.9-5.2,17.8-15.7,17.8
			c-4.1,0-9.5-0.1-16.2-0.2c-0.5-4.3-1.2-8.7-2.1-13.1c5.8,0.6,10.9,1,15.3,1c4.2,0,6.3-2.6,6.3-7.8v-42c-6.9,2.3-14.2,4.8-21.7,7.5
			L426.7,192z M483.5,166.7h30.8c1.3-10.7,2-24.1,2.1-40.2h-27.9v-12h91v12h-50.5c-0.1,15.8-0.8,29.2-1.9,40.2h58.2v12h-59.9
			c-5.5,35.6-21.6,63-48.2,82.3c-2.4-4.1-5.2-8-8.6-11.7c24-16.4,38.6-40,43.8-70.6h-29V166.7z M532,187.3h12.5v49.5
			c0,5.6,2.5,8.4,7.6,8.4h12.8c5,0,7.9-3,8.8-8.9c0.8-5.2,1.4-11.6,1.9-19.3c3.9,1.7,8.1,3.3,12.5,4.7c-0.8,6.8-1.6,13-2.6,18.7
			c-1.9,11.5-7.9,17.2-17.8,17.2h-18.3c-11.6,0-17.4-6.4-17.4-19.1V187.3z"/>
		<path class="st2" d="M605.5,147.9l12,2.9c-3.9,17.2-8.2,32.5-13,45.9c-4.2-1.6-8.1-3-11.7-4.1
			C597.9,178.6,602.2,163.7,605.5,147.9z M624.8,105.2h12.8v66.2c0,40.5-10.5,70.3-31.5,89.6c-2.7-3.1-6-6.5-9.7-10.2
			c19-17,28.5-44.8,28.4-83.6V105.2z M643,153.2l11.2-4.5c5.9,14,11.1,26.6,15.6,38l-12.2,5.2C653.5,179.5,648.6,166.6,643,153.2z
			 M676.2,107.6h12.8v149.3h-12.8V107.6z M694.1,153.6l11.2-4.9c5.9,13.3,11.4,26.1,16.2,38.5l-11.8,5.2
			C705.2,179.6,700,166.6,694.1,153.6z M727.8,104.6h12.8V260h-12.8V104.6z"/>
		<path class="st2" d="M788,245.2h-12.7v-83.9h57.9V139h-71.7v-12.3h75.7c-3.4-6.8-7.3-13.6-11.8-20.4l12.5-5.8
			c4.7,6.8,8.9,13.8,12.8,20.9l-10.7,5.4h78.5V139h-72.4v22.4h58.9V222c0,13.6-6.4,20.4-19.3,20.4c-6,0-13.7-0.1-23.2-0.3
			c-0.5-3.6-1.3-7.9-2.3-13c9,0.5,16.2,0.8,21.6,0.8c7,0,10.5-3.6,10.5-10.7v-45.9h-46.2v88.8h-13v-88.8H788V245.2z"/>
		<path class="st2" d="M1086.9,222.2c-3.6,4.4-6.5,8.3-8.8,11.7c-10-4.7-19.1-10.3-27.4-16.9v8.9h-38.8v16.9h63.4v10.5h-139v-10.5
			h63.4v-16.9h-39.3v-8.8c-8.6,7.2-17.6,13.4-26.9,18.7c-2.1-2.9-4.9-6.3-8.4-10.2c16.7-8.1,31.1-18.4,43.2-30.8h-41.5v-10.5h32.3
			v-54.4H932v-10.5h27.3v-17.5h12.2v17.5h69.6v-17.5h12.2v17.5h27.3v10.5h-27.3v54.4h31.8v10.5h-42.7
			C1054.5,206.9,1069.3,216,1086.9,222.2z M999.8,200h12.2v15.7h37.2c-7.7-6.2-14.8-13.2-21.2-20.9h-44.7
			c-6.8,7.7-13.8,14.7-21.1,20.9h37.6V200z M971.4,141.2h69.6v-11.4h-69.6V141.2z M971.4,162.6h69.6v-11.4h-69.6V162.6z
			 M971.4,184.2h69.6v-11.5h-69.6V184.2z"/>
		<path class="st2" d="M1089.5,194c12.2-20.3,21-42.6,26.4-67h-21.1v-10.7h57.6V127h-25.7c-2.8,12.5-6.2,24.4-10.2,35.7h29.6v82.7
			h-10.7v-10.9h-17.8v15.4h-10.7v-64.3c-2.9,6-6,11.7-9.2,17.1C1095.3,199.8,1092.6,196.9,1089.5,194z M1135.4,173h-17.8v51.1h17.8
			V173z M1231.8,182.6V175h-23.5v65.2h26.4v-46.7h12v65.7h-12v-7.3h-76.6v-58.4h12v46.7h26.1V175h-35.2v-54.7h12v43h23.2v-59.9h12
			v59.9h23.5v-42.8h12v62.1H1231.8z"/>
		<path class="st2" d="M1257.3,180.5c15.9-23.6,27.9-49.6,35.9-78.2l12.7,3.6c-4.7,14.5-9.8,28-15.4,40.2v116.3h-12v-92.6
			c-5,8.7-10.2,16.7-15.7,23.9C1260.9,189.3,1259.1,184.8,1257.3,180.5z M1304.2,124.2h53c-3.2-5.6-6.6-11.1-10.1-16.5l10.9-5.7
			c3.9,5.8,7.7,12,11.5,18.5l-7.1,3.7h56.1v11.4h-114.2V124.2z M1313.1,150.6h95.7v11h-95.7V150.6z M1313.1,176.8h95.7v11h-95.7
			V176.8z M1314.9,203h92.3v59.4h-12.5v-9.7h-67.3v9.7h-12.5V203z M1394.7,214.1h-67.3v27.6h67.3V214.1z"/>
		<path class="st2" d="M1437.9,211.2l11.8,4.1c-4.8,13-9.7,24.8-14.9,35.5c-3.5-1.5-7.5-3.1-12-4.7
			C1428.1,236.6,1433.1,225,1437.9,211.2z M1445,118h39.7c2.3-5.8,4.2-11.4,5.8-16.7l12.7,3.4c-1.8,4.6-3.7,9-5.6,13.3h64.7v88.6
			h-12.5v-5h-92.2v5H1445V118z M1549.6,129.1h-92.2v13.5h92.2V129.1z M1457.5,166.5h92.2v-13.6h-92.2V166.5z M1457.5,190.6h92.2
			v-13.6h-92.2V190.6z M1462,212.8h12.3v23.9c0,6.7,3.6,10.1,10.7,10.1h36c8.7,0,13.7-3,15.1-8.9c1.1-3.9,2.2-9.8,3.2-17.7
			c4,1.6,8.2,3.2,12.7,4.7c-1.3,7.5-2.6,13.5-3.9,18c-2.5,10.3-10.5,15.4-24.2,15.4h-40.9c-14.1,0-21.1-6.7-21.1-20.1V212.8z
			 M1490.4,211l8.8-7.5c6.6,6.1,13.8,13.3,21.7,21.7l-9.9,8.4C1503,224.3,1496.2,216.7,1490.4,211z M1554.2,216.4l9.4-7.3
			c7.7,8.3,15.5,17.5,23.5,27.4l-10.4,8C1569.4,234.5,1561.9,225.1,1554.2,216.4z"/>
		<path class="st2" d="M1639,148.5c-4.1-5.4-8.6-10.9-13.5-16.5l7.3-5.2h-14c-6.2,7.9-13.1,14.9-20.8,20.9c-2.2-2.6-4.9-5.6-8.1-9.1
			c12.7-9.8,23-22.2,31-37.2h14c-2.7,5.4-5.7,10.4-8.8,15.3h47.6v10.1h-38.9c4.9,4.7,9.5,9.5,13.8,14.4L1639,148.5z M1596.7,149.3
			h69.4c-1.9-3.4-4.2-7.2-6.9-11.4l11.2-4.9c3.6,5.2,6.8,10.6,9.7,16.2h64.1v25.1h-12.5v-14.6h-122.5v14.8h-12.5V149.3z M1615,171.9
			h99.9V211h-12.3v-4.1h-75.1v12.3h101.1v42.3h-12.3v-6.2h-88.8v6.3H1615V171.9z M1702.7,181.6h-75.1v15.6h75.1V181.6z M1716.3,229
			h-88.8v15.9h88.8V229z M1713.2,148.4c-3.6-5.1-8-10.6-13.1-16.5l7.1-5h-13.7c-3.1,5-6.4,9.7-9.9,14c-2.4-2.4-5.7-5-9.9-8
			c7.6-8.4,13.9-18.9,19-31.3h14c-2.3,5.4-4.8,10.4-7.4,15.3h51.8v10.1h-41.5c4.9,4.8,9.4,9.5,13.3,14.3L1713.2,148.4z"/>
		<path class="st2" d="M1754.7,235c8.3-2,16.4-4,24.2-6v-49.2h-20.3v-11.4h20.3v-40.6H1757v-11.4h55.8v11.4h-21.9v40.6h20.6v11.4
			h-20.6v45.9c7.1-2,14.1-4,20.8-6c0.5,4.9,1.1,9.1,1.8,12.7c-18.5,5-36.6,10.2-54.4,15.7L1754.7,235z M1806.3,244.6h50.8v-23.4
			h-41.4v-11.4h41.4v-21.4h-26v6h-12v-83.7h87.9v83.7h-12v-6h-26v21.4h41.4v11.4h-41.4v23.4h48.5v11.4h-111.3V244.6z M1831.2,144.2
			h26v-22.4h-26V144.2z M1831.2,177.4h26v-22.6h-26V177.4z M1895.1,121.8h-26v22.4h26V121.8z M1869.1,177.4h26v-22.6h-26V177.4z"/>
		<path class="st2" d="M1922.5,203.7h120.2V216h-120.2V203.7z M1949.9,178.4v-12.3l6.5-64.1h13.5l-2.5,25.8h115.1v12.3h-116.3
			l-2.5,26h106.9c-1.3,22.7-2.8,43.9-4.4,63.4c-1.5,11.5-4.8,19.2-9.9,23.2c-4.9,3.9-13,5.8-24.4,5.8c-10.7-0.1-23-0.3-36.9-0.6
			c-0.6-3.7-1.6-8.4-2.8-14.1c16.4,1.2,28.7,1.8,36.8,1.9c14.5,1,22.4-4.7,23.7-17c1.4-14.4,2.6-31.2,3.6-50.3H1949.9z"/>
		<path class="st2" d="M2163,107l11.8-6.3c4.7,6,9.1,12.4,13.3,19.3l-7.9,4.5h65.8v12.3h-126.4v39.8c0,38.3-7.9,66.9-23.7,85.8
			c-2.6-3.6-5.7-7.3-9.4-11.2c13-14.5,19.5-39.3,19.5-74.3v-52.4h68.6C2171.1,118.6,2167.2,112.7,2163,107z M2118.7,240.5h75
			c8.4-21.6,17.4-51.1,26.9-88.6l14.1,3.9c-10.1,35.7-19.1,63.9-26.9,84.7h40.1v12.3h-129.2V240.5z M2127.4,160.9l12.3-4.2
			c6.7,19.7,13.2,41.8,19.5,66.2l-13.8,4.2C2140.5,205.6,2134.5,183.6,2127.4,160.9z M2166.5,152.7l12.5-3.6
			c5.6,19.5,10.6,41.3,14.9,65.4l-14.3,3.7C2176.5,196.9,2172.2,175,2166.5,152.7z"/>
		<path class="st2" d="M2332.2,259.3v-51.6H2285c-1.8,22.5-8.4,41.2-19.6,56c-2.8-3.6-6-7.3-9.6-11.2c7-10,11.8-21,14.3-33.1
			c2.4-11.7,3.6-28.2,3.6-49.6v-57.9h132.2v129c0,12.9-6.1,19.3-18.3,19.3c-7.5,0-15.8-0.2-25.1-0.5c-0.5-3.6-1.4-8.1-2.4-13.5
			c9.4,0.6,17,1,22.9,1c6.7,0,10.1-3.2,10.1-9.6v-29.9h-47.7v51.6H2332.2z M2285.9,196.1h46.3v-30.3h-45.6
			C2286.9,176.2,2286.7,186.3,2285.9,196.1z M2286.6,123.9V154h45.6v-30.2H2286.6z M2392.9,123.9h-47.7V154h47.7V123.9z
			 M2345.2,196.1h47.7v-30.3h-47.7V196.1z"/>
		<path class="st2" d="M2461.8,213.6l10.5,8.3c-13.8,12.4-28.4,24.4-43.6,36c-2.6-3.1-5.6-6.4-8.9-9.9
			C2433.9,238.4,2447.9,226.9,2461.8,213.6z M2534.8,169c13.8,11.1,28,23.4,42.5,36.7c-3.6,3.5-6.9,6.8-9.9,9.9
			c-4.5-4.4-9-8.8-13.6-13.1c-14.4,0.6-29.2,1.3-44.3,2.1V241c0,12.3-6.5,18.5-19.5,18.5c-5.3,0-12.3-0.1-20.9-0.3
			c-0.5-4-1.2-8.4-2.1-13.3c9.1,1,16.1,1.5,20.9,1.5c5.9,0,8.9-2.9,8.9-8.8v-33.4c-13.1,0.7-26.5,1.5-40.1,2.3
			c-6.2,0.3-12.3,1-18.3,2.1l-5.4-14c7.1-1.3,13.9-3.4,20.3-6.3c16.5-8.1,31.9-16.3,46.1-24.5c-18.8,1.5-34.6,2.8-47.4,3.9
			c-5.6,0.5-9.9,1.1-12.8,1.8l-5.2-13.6c5.2-1.3,10.1-3.2,14.6-5.7c13.6-7.6,27.2-16.5,40.8-26.9c-18.6,1.1-37.3,2.1-56.4,3
			c-0.8-3.8-1.7-7.6-2.9-11.4c51.6-1.9,97.4-4.9,137.4-8.9l2.4,11.5c-23.5,1.9-47.3,3.7-71.5,5.3l6.6,4.6
			c-17,11.4-32.7,20.9-47.1,28.7c24.2-1.4,44.3-2.6,60.2-3.9c10.8-6.9,20.8-13.9,30-20.9l10.5,8.6c-27.2,19.4-58.7,37.5-94.6,54.4
			c21.5-0.8,47.6-1.9,78.3-3.4c-5.4-5-10.8-9.8-16.3-14.6L2534.8,169z M2525.3,222.2l8.3-8.8c13.6,9.1,28.6,20,44.9,32.6l-9.6,10.5
			C2553.8,244,2539.2,232.6,2525.3,222.2z"/>
		<path class="st2" d="M2586.4,234.5c18-3.5,36.5-7.4,55.7-11.7c-0.4,5.6-0.6,9.5-0.6,11.7c-19.6,4.3-36.7,8.4-51.3,12.3
			L2586.4,234.5z M2607.5,200.5c8.7-1.2,19.7-2.8,33.3-4.9c-0.6,4.3-1.2,8.3-1.6,12c-13.5,1.8-29,4.2-46.4,7l-2.6-11.7
			c6.8-6.9,14.8-18.2,24.1-33.8c-11.2,0.8-19.3,1.3-24.3,1.7l-3.1-11c9.5-12.5,19.8-31.7,30.8-57.4l12.3,4.9
			c-10.5,20.6-20.1,37.8-28.7,51.6c7.1-0.1,13.5-0.3,19.1-0.5c3.2-5.8,6.7-12.1,10.2-18.8l12.2,5.4
			C2630.6,166.3,2618.8,184.9,2607.5,200.5z M2716.7,145.8c9.1,12.2,18.4,26,27.9,41.4c-3.8,2.2-7.8,4.6-12,7.3
			c-2.7-4.6-5.3-9-7.8-13.2c-5,0.3-10.2,0.6-15.6,0.9v55c0,6.6,2.4,9.9,7.3,9.9h8c5.3,0,8.3-2.7,9.1-8.1c0.9-6.5,1.4-13.5,1.6-21.1
			c3.6,1.5,7.9,3.1,13,4.7c-0.9,9.4-1.8,16.7-2.8,21.9c-1.5,9.4-7.2,14.1-17,14.1h-14c-11.8,0-17.7-6.8-17.7-20.3v-55.4
			c-6.1,0.3-12.3,0.7-18.8,1.1c-0.9,23.5-3.9,39.9-9.1,49.2c-6.2,11.9-17.7,21.7-34.6,29.5c-2.4-3.4-5.1-7-8.3-10.9
			c15.7-6.4,26.2-14.8,31.5-25.1c4.9-8.3,7.5-22.3,7.9-41.9c-2.2,0.2-4.5,0.3-6.7,0.4c-4.7,0.4-9,1.1-13,2.1l-5.5-12.7
			c4.7-1.9,8.4-4.5,11.2-7.8c8.1-9.7,15.7-20.2,22.9-31.6h-35.4v-11.5h51.8c-4.1-6.2-7.9-11.7-11.5-16.5l10.7-6.7
			c4.1,5.1,8.7,11.1,13.8,18.2l-7.7,5h49.4v11.5h-65.9l8.9,3.9c-9,12.1-17.8,23.3-26.4,33.4c20.4-0.7,39.1-1.4,56.2-2.2
			c-4.1-6.6-8-12.6-11.8-18.1L2716.7,145.8z"/>
	</g>
</g>
</svg>
